HIERARCHY
ROOT joint_Root
{
	OFFSET 0.0 0.0 0.0
	CHANNELS 6 Xposition Yposition Zposition Zrotation Xrotation Yrotation 
	JOINT Hips
	{
		OFFSET -17.1583 93.1646 452.98
		CHANNELS 6 Xposition Yposition Zposition Zrotation Xrotation Yrotation 
		JOINT Spine
		{
			OFFSET 15.7357 0.0 0.0
			CHANNELS 6 Xposition Yposition Zposition Zrotation Xrotation Yrotation 
			JOINT Chest
			{
				OFFSET 8.98455 -0.406207 0.0
				CHANNELS 6 Xposition Yposition Zposition Zrotation Xrotation Yrotation 
				JOINT Neck
				{
					OFFSET 16.3773 0.0 0.0
					CHANNELS 6 Xposition Yposition Zposition Zrotation Xrotation Yrotation 
					JOINT Head
					{
						OFFSET 6.45672 0.0 0.0
						CHANNELS 6 Xposition Yposition Zposition Zrotation Xrotation Yrotation 
						End Site
						{
							OFFSET 0.0 0.0 0.0
						}
					}
				}
				JOINT Shoulder_L
				{
					OFFSET 12.9942 -0.242716 4.98039
					CHANNELS 6 Xposition Yposition Zposition Zrotation Xrotation Yrotation 
					JOINT UpperArm_L
					{
						OFFSET 5.34809 0.0 0.0
						CHANNELS 6 Xposition Yposition Zposition Zrotation Xrotation Yrotation 
						JOINT LowerArm_L
						{
							OFFSET 24.3286 1.87007e-05 0.0
							CHANNELS 6 Xposition Yposition Zposition Zrotation Xrotation Yrotation 
							JOINT Hand_L
							{
								OFFSET 22.2916 0.0 0.0
								CHANNELS 6 Xposition Yposition Zposition Zrotation Xrotation Yrotation 
								End Site
								{
									OFFSET 0.0 0.0 0.0
								}
							}
						}
					}
				}
				JOINT Shoulder_R
				{
					OFFSET 12.9945 -0.242716 -4.98039
					CHANNELS 6 Xposition Yposition Zposition Zrotation Xrotation Yrotation 
					JOINT UpperArm_R
					{
						OFFSET -5.34813 0.0 0.0
						CHANNELS 6 Xposition Yposition Zposition Zrotation Xrotation Yrotation 
						JOINT LowerArm_R
						{
							OFFSET -24.3289 0.000322201 0.0
							CHANNELS 6 Xposition Yposition Zposition Zrotation Xrotation Yrotation 
							JOINT Hand_R
							{
								OFFSET -22.2915 -0.000108084 0.0
								CHANNELS 6 Xposition Yposition Zposition Zrotation Xrotation Yrotation 
								End Site
								{
									OFFSET 0.0 0.0 0.0
								}
							}
						}
					}
				}
			}
		}
		JOINT UpperLeg_L
		{
			OFFSET -2.19248 -6.46944 0.0
			CHANNELS 6 Xposition Yposition Zposition Zrotation Xrotation Yrotation 
			JOINT LowerLeg_L
			{
				OFFSET 39.0811 0.0 -1.23785e-05
				CHANNELS 6 Xposition Yposition Zposition Zrotation Xrotation Yrotation 
				JOINT Foot_L
				{
					OFFSET 40.9854 0.0 -1.26872e-05
					CHANNELS 6 Xposition Yposition Zposition Zrotation Xrotation Yrotation 
					JOINT Toes_L
					{
						OFFSET 11.7543 0.0 0.0
						CHANNELS 6 Xposition Yposition Zposition Zrotation Xrotation Yrotation 
						End Site
						{
							OFFSET 0.0 0.0 0.0
						}
					}
				}
			}
		}
		JOINT UpperLeg_R
		{
			OFFSET -2.19251 6.46944 0.0
			CHANNELS 6 Xposition Yposition Zposition Zrotation Xrotation Yrotation 
			JOINT LowerLeg_R
			{
				OFFSET -39.0811 -0.00228153 -0.0401928
				CHANNELS 6 Xposition Yposition Zposition Zrotation Xrotation Yrotation 
				JOINT Foot_R
				{
					OFFSET -40.9854 0.0 0.0
					CHANNELS 6 Xposition Yposition Zposition Zrotation Xrotation Yrotation 
					JOINT Toes_R
					{
						OFFSET -11.7543 0.0 0.0
						CHANNELS 6 Xposition Yposition Zposition Zrotation Xrotation Yrotation 
						End Site
						{
							OFFSET 0.0 0.0 0.0
						}
					}
				}
			}
		}
	}
}
MOTION
Frames:	7
Frame Time:	0.0333333
0.000000 0.000000 0.000000 0.000000 0.000000 -0.000000 -2.338210 92.854400 1.865910 87.928600 2.695380 -1.730370 15.735700 0.000005 -0.000001 96.904400 88.824100 -95.839700 8.984550 -0.406207 -0.000000 -5.431880 0.159832 2.139230 16.377300 -0.000001 -0.000001 4.026160 -0.950896 -1.630010 6.456720 -0.000001 -0.000000 6.973240 -2.675310 4.283240 12.994200 -0.242716 4.980390 -92.614600 7.864070 -71.543400 5.348090 -0.000007 -0.000001 -73.222300 18.880200 -0.188441 24.328600 0.000019 0.000005 13.347700 28.076700 -26.753700 22.291600 -0.000001 0.000005 -6.812100 5.065260 5.898580 12.994500 -0.242716 -4.980390 88.403800 5.380230 -73.449000 -5.348130 -0.000001 -0.000004 -71.931300 32.326800 -1.571900 -24.328900 0.000322 -0.000009 2.766390 8.544090 -18.022700 -22.291500 -0.000108 -0.000004 0.080011 5.224220 2.104520 -2.192480 -6.469440 -0.000000 -175.998000 0.912157 -3.358180 39.081100 -0.000007 -0.000012 0.119013 -0.370447 17.810800 40.985400 -0.000006 -0.000013 -0.691581 10.058400 -71.171500 11.754300 -0.000000 0.000003 -0.000202 0.170958 -9.642690 -2.192510 6.469440 -0.000001 -174.966000 8.332390 -178.128000 -39.081100 -0.002282 -0.040193 -0.002140 0.032023 9.709850 -40.985400 0.000008 0.000006 -2.942490 3.706050 -67.901800 -11.754300 -0.000006 -0.000006 -0.010781 0.277055 -5.315760
0.000000 0.000000 0.000000 0.000000 0.000000 -0.000000 -2.434060 92.876300 1.749010 87.949400 2.760000 -1.805750 15.735700 0.000005 -0.000001 96.039000 88.779700 -94.974200 8.984550 -0.406207 -0.000000 -5.339300 0.134771 2.137920 16.377300 -0.000001 -0.000001 3.708400 -1.132080 -1.718510 6.456720 -0.000001 -0.000000 6.720010 -3.009120 3.937450 12.994200 -0.242716 4.980390 -92.644100 7.950530 -71.537200 5.348090 -0.000007 -0.000001 -72.582500 16.276200 -1.129410 24.328600 0.000019 0.000005 13.309800 27.483100 -27.141000 22.291600 -0.000001 0.000005 -6.555950 5.051790 6.197750 12.994500 -0.242716 -4.980390 88.424900 5.320990 -73.483900 -5.348130 -0.000001 -0.000004 -72.009000 32.301400 -1.655120 -24.328900 0.000322 -0.000009 2.744410 8.536180 -17.903900 -22.291500 -0.000108 -0.000004 0.028807 5.227470 2.020960 -2.192480 -6.469440 -0.000000 -175.917000 0.986076 -3.533050 39.081100 -0.000007 -0.000012 0.113309 -0.353278 17.783100 40.985400 -0.000006 -0.000013 -1.048950 10.107200 -70.951100 11.754300 -0.000000 0.000003 -0.000261 0.171901 -9.604350 -2.192510 6.469440 -0.000001 -174.894000 8.377050 -178.249000 -39.081100 -0.002282 -0.040193 -0.001903 0.030946 9.615250 -40.985400 0.000008 0.000006 -2.855970 3.673530 -67.792500 -11.754300 -0.000006 -0.000006 -0.010825 0.277368 -5.302930
0.000000 0.000000 0.000000 0.000000 0.000000 -0.000000 -2.540690 92.894000 1.641740 87.932200 2.788010 -1.805090 15.735700 0.000005 -0.000001 95.226900 88.705600 -94.153000 8.984550 -0.406207 -0.000000 -5.188160 0.114265 2.154870 16.377300 -0.000001 -0.000001 3.394270 -1.291900 -1.800290 6.456720 -0.000001 -0.000000 6.260460 -3.378760 3.441970 12.994200 -0.242716 4.980390 -92.665300 8.005420 -71.516900 5.348090 -0.000007 -0.000001 -71.806100 13.851800 -1.799590 24.328600 0.000019 0.000005 13.395500 25.669000 -28.802200 22.291600 -0.000001 0.000005 -5.945010 5.024460 6.794090 12.994500 -0.242716 -4.980390 88.437600 5.288610 -73.515900 -5.348130 -0.000001 -0.000004 -72.077600 32.248900 -1.692550 -24.328900 0.000322 -0.000009 2.751450 8.550620 -17.918800 -22.291500 -0.000108 -0.000004 0.120365 5.226150 2.054820 -2.192480 -6.469440 -0.000000 -175.814000 1.005480 -3.611340 39.081100 -0.000007 -0.000012 0.110800 -0.345845 17.764200 40.985400 -0.000006 -0.000013 -1.194270 10.154000 -70.864500 11.754300 -0.000000 0.000003 -0.000228 0.171370 -9.625920 -2.192510 6.469440 -0.000001 -174.787000 8.414240 -178.310000 -39.081100 -0.002282 -0.040193 -0.001810 0.030552 9.567870 -40.985400 0.000008 0.000006 -2.773030 3.629860 -67.699900 -11.754300 -0.000006 -0.000006 -0.010825 0.277371 -5.302810
0.000000 0.000000 0.000000 0.000000 0.000000 -0.000000 -2.656530 92.905200 1.520240 87.916900 2.803860 -1.839610 15.735700 0.000005 -0.000001 94.746200 88.623100 -93.660400 8.984550 -0.406207 -0.000000 -5.021780 0.106524 2.178050 16.377300 -0.000001 -0.000001 3.081860 -1.469470 -1.945670 6.456720 -0.000001 -0.000000 5.553370 -3.805630 2.785150 12.994200 -0.242716 4.980390 -92.699300 8.084580 -71.466600 5.348090 -0.000007 -0.000001 -70.896400 11.429300 -2.265380 24.328600 0.000019 0.000005 14.410100 24.037800 -32.243500 22.291600 -0.000001 0.000005 -5.127890 5.003940 7.235310 12.994500 -0.242716 -4.980390 88.438900 5.272960 -73.481900 -5.348130 -0.000001 -0.000004 -72.065200 32.290700 -1.819210 -24.328900 0.000322 -0.000009 2.725050 8.445990 -17.961900 -22.291500 -0.000108 -0.000004 0.158151 5.225320 2.076420 -2.192480 -6.469440 -0.000000 -175.707000 1.061340 -3.788970 39.081100 -0.000007 -0.000012 0.108726 -0.337825 17.840400 40.985400 -0.000006 -0.000013 -1.485180 10.170400 -70.729700 11.754300 -0.000000 0.000003 -0.000234 0.171473 -9.621740 -2.192510 6.469440 -0.000001 -174.687000 8.491260 -178.449000 -39.081100 -0.002282 -0.040193 -0.001672 0.029663 9.590030 -40.985400 0.000008 0.000006 -2.741130 3.710200 -67.589300 -11.754300 -0.000006 -0.000006 -0.010780 0.277044 -5.316200
0.000000 0.000000 0.000000 0.000000 0.000000 -0.000000 -2.793230 92.922200 1.379520 87.885800 2.845810 -1.908080 15.735700 0.000005 -0.000001 94.240500 88.560200 -93.145900 8.984550 -0.406207 -0.000000 -4.894220 0.091866 2.194720 16.377300 -0.000001 -0.000001 2.798980 -1.677310 -2.126030 6.456720 -0.000001 -0.000000 4.760530 -4.339790 2.015770 12.994200 -0.242716 4.980390 -92.710700 8.075290 -71.374100 5.348090 -0.000007 -0.000001 -70.006900 9.231220 -2.559520 24.328600 0.000019 0.000005 16.102900 22.423800 -37.118600 22.291600 -0.000001 0.000005 -3.625820 4.987130 7.591220 12.994500 -0.242716 -4.980390 88.449000 5.242320 -73.492900 -5.348130 -0.000001 -0.000004 -72.076400 32.326600 -1.895370 -24.328900 0.000322 -0.000009 2.706960 8.353460 -18.033800 -22.291500 -0.000108 -0.000004 0.152200 5.226810 2.037790 -2.192480 -6.469440 -0.000000 -175.557000 1.144610 -3.998280 39.081100 -0.000007 -0.000012 0.104195 -0.323152 17.871200 40.985400 -0.000006 -0.000013 -1.746630 10.160800 -70.573000 11.754300 -0.000000 0.000003 -0.000263 0.171934 -9.603030 -2.192510 6.469440 -0.000001 -174.528000 8.500860 -178.568000 -39.081100 -0.002282 -0.040193 -0.001472 0.028853 9.467540 -40.985400 0.000008 0.000006 -2.624910 3.612740 -67.475700 -11.754300 -0.000006 -0.000006 -0.011017 0.278755 -5.246170
0.000000 0.000000 0.000000 0.000000 0.000000 -0.000000 -2.939960 92.929700 1.255320 87.810600 2.829280 -1.943270 15.735700 0.000005 -0.000001 95.497200 88.486800 -94.385200 8.984550 -0.406207 -0.000000 -4.754210 0.168234 2.232550 16.377300 -0.000001 -0.000001 2.566740 -1.995230 -2.350210 6.456720 -0.000001 -0.000000 3.853690 -5.045970 1.104940 12.994200 -0.242716 4.980390 -92.703800 8.006780 -71.271200 5.348090 -0.000007 -0.000001 -69.364200 6.619540 -2.837480 24.328600 0.000019 0.000005 18.195500 20.660200 -42.972700 22.291600 -0.000001 0.000005 -1.520550 4.972800 7.889680 12.994500 -0.242716 -4.980390 88.452600 5.209550 -73.431200 -5.348130 -0.000001 -0.000004 -72.073000 32.337500 -1.963070 -24.328900 0.000322 -0.000009 2.696200 8.268990 -18.137000 -22.291500 -0.000108 -0.000004 0.174824 5.227550 2.018930 -2.192480 -6.469440 -0.000000 -175.354000 1.240590 -4.213190 39.081100 -0.000007 -0.000012 0.101327 -0.311685 18.009200 40.985400 -0.000006 -0.000013 -2.091870 10.122400 -70.445000 11.754300 -0.000000 0.000003 -0.000211 0.171102 -9.636830 -2.192510 6.469440 -0.000001 -174.341000 8.571160 -178.697000 -39.081100 -0.002282 -0.040193 -0.001395 0.028424 9.457510 -40.985400 0.000008 0.000006 -2.503170 3.706390 -67.333700 -11.754300 -0.000006 -0.000006 -0.010636 0.276000 -5.358900
0.000000 0.000000 0.000000 0.000000 0.000000 -0.000000 -3.100130 92.942200 1.115860 87.723300 2.886850 -2.032610 15.735700 0.000005 -0.000001 96.448500 88.454100 -95.338800 8.984550 -0.406207 -0.000000 -4.694980 0.226330 2.230270 16.377300 -0.000001 -0.000001 2.363010 -2.379270 -2.629370 6.456720 -0.000001 -0.000000 2.982930 -5.902910 0.151430 12.994200 -0.242716 4.980390 -92.680500 7.877760 -71.140600 5.348090 -0.000007 -0.000001 -68.951200 3.891870 -3.022520 24.328600 0.000019 0.000005 19.715800 17.787600 -49.555900 22.291600 -0.000001 0.000005 1.318600 4.938870 8.584090 12.994500 -0.242716 -4.980390 88.446000 5.217910 -73.390100 -5.348130 -0.000001 -0.000004 -72.093700 32.326400 -1.948170 -24.328900 0.000322 -0.000009 2.731970 8.337270 -18.222400 -22.291500 -0.000108 -0.000004 0.118645 5.227650 2.016120 -2.192480 -6.469440 -0.000000 -175.115000 1.378200 -4.514440 39.081100 -0.000007 -0.000012 0.096142 -0.293099 18.160600 40.985400 -0.000006 -0.000013 -2.578420 10.133700 -70.282600 11.754300 -0.000000 0.000003 -0.000008 0.167764 -9.772400 -2.192510 6.469440 -0.000001 -174.114000 8.610550 -178.862000 -39.081100 -0.002282 -0.040193 -0.001248 0.027808 9.368060 -40.985400 0.000008 0.000006 -2.413100 3.664550 -67.210000 -11.754300 -0.000006 -0.000006 -0.010650 0.276101 -5.354780
